<mxfile host="app.diagrams.net" agent="Mozilla/5.0 (Windows NT 10.0; Win64; x64) AppleWebKit/537.36 (KHTML, like Gecko) Chrome/133.0.0.0 Safari/537.36 OPR/118.0.0.0" version="27.0.9">
  <diagram name="PÃ¡gina-1" id="2RFinZjLspUhYggcQLzd">
    <mxGraphModel dx="1626" dy="892" grid="1" gridSize="10" guides="1" tooltips="1" connect="1" arrows="1" fold="1" page="1" pageScale="1" pageWidth="827" pageHeight="1169" math="0" shadow="0">
      <root>
        <mxCell id="0" />
        <mxCell id="1" parent="0" />
        <mxCell id="Ikh1pLO8s60egoNyS5ZD-2" value="NAMESPACE: parcial3" style="text;html=1;align=center;verticalAlign=middle;whiteSpace=wrap;rounded=0;" vertex="1" parent="1">
          <mxGeometry x="540" y="140" width="60" height="30" as="geometry" />
        </mxCell>
        <mxCell id="Ikh1pLO8s60egoNyS5ZD-4" value="/api/cars-create" style="rounded=0;whiteSpace=wrap;html=1;" vertex="1" parent="1">
          <mxGeometry x="195" y="380" width="90" height="30" as="geometry" />
        </mxCell>
        <mxCell id="Ikh1pLO8s60egoNyS5ZD-5" value="" style="aspect=fixed;sketch=0;html=1;dashed=0;whitespace=wrap;verticalLabelPosition=bottom;verticalAlign=top;fillColor=#2875E2;strokeColor=#ffffff;points=[[0.005,0.63,0],[0.1,0.2,0],[0.9,0.2,0],[0.5,0,0],[0.995,0.63,0],[0.72,0.99,0],[0.5,1,0],[0.28,0.99,0]];shape=mxgraph.kubernetes.icon2;kubernetesLabel=1;prIcon=svc" vertex="1" parent="1">
          <mxGeometry x="215" y="430" width="50" height="48" as="geometry" />
        </mxCell>
        <mxCell id="Ikh1pLO8s60egoNyS5ZD-6" value="" style="aspect=fixed;sketch=0;html=1;dashed=0;whitespace=wrap;verticalLabelPosition=bottom;verticalAlign=top;fillColor=#2875E2;strokeColor=#ffffff;points=[[0.005,0.63,0],[0.1,0.2,0],[0.9,0.2,0],[0.5,0,0],[0.995,0.63,0],[0.72,0.99,0],[0.5,1,0],[0.28,0.99,0]];shape=mxgraph.kubernetes.icon2;prIcon=ing" vertex="1" parent="1">
          <mxGeometry x="545" y="230" width="50" height="48" as="geometry" />
        </mxCell>
        <mxCell id="Ikh1pLO8s60egoNyS5ZD-8" value="" style="endArrow=classic;html=1;rounded=0;exitX=0.5;exitY=1;exitDx=0;exitDy=0;entryX=0.5;entryY=0;entryDx=0;entryDy=0;entryPerimeter=0;" edge="1" parent="1" source="Ikh1pLO8s60egoNyS5ZD-4" target="Ikh1pLO8s60egoNyS5ZD-5">
          <mxGeometry width="50" height="50" relative="1" as="geometry">
            <mxPoint x="250" y="348" as="sourcePoint" />
            <mxPoint x="250" y="390" as="targetPoint" />
          </mxGeometry>
        </mxCell>
        <mxCell id="Ikh1pLO8s60egoNyS5ZD-9" value="" style="aspect=fixed;sketch=0;html=1;dashed=0;whitespace=wrap;verticalLabelPosition=bottom;verticalAlign=top;fillColor=#2875E2;strokeColor=#ffffff;points=[[0.005,0.63,0],[0.1,0.2,0],[0.9,0.2,0],[0.5,0,0],[0.995,0.63,0],[0.72,0.99,0],[0.5,1,0],[0.28,0.99,0]];shape=mxgraph.kubernetes.icon2;prIcon=pod" vertex="1" parent="1">
          <mxGeometry x="215" y="500" width="50" height="48" as="geometry" />
        </mxCell>
        <mxCell id="Ikh1pLO8s60egoNyS5ZD-10" value="CarCreateController&lt;div&gt;createCar()&lt;/div&gt;" style="rounded=1;whiteSpace=wrap;html=1;" vertex="1" parent="1">
          <mxGeometry x="180" y="585" width="120" height="60" as="geometry" />
        </mxCell>
        <mxCell id="Ikh1pLO8s60egoNyS5ZD-11" value="" style="endArrow=classic;html=1;rounded=0;exitX=0.5;exitY=1;exitDx=0;exitDy=0;exitPerimeter=0;entryX=0.5;entryY=0;entryDx=0;entryDy=0;entryPerimeter=0;" edge="1" parent="1" source="Ikh1pLO8s60egoNyS5ZD-5" target="Ikh1pLO8s60egoNyS5ZD-9">
          <mxGeometry width="50" height="50" relative="1" as="geometry">
            <mxPoint x="250" y="348" as="sourcePoint" />
            <mxPoint x="250" y="390" as="targetPoint" />
          </mxGeometry>
        </mxCell>
        <mxCell id="Ikh1pLO8s60egoNyS5ZD-12" value="" style="endArrow=classic;html=1;rounded=0;exitX=0.5;exitY=1;exitDx=0;exitDy=0;exitPerimeter=0;entryX=0.5;entryY=0;entryDx=0;entryDy=0;" edge="1" parent="1" source="Ikh1pLO8s60egoNyS5ZD-9" target="Ikh1pLO8s60egoNyS5ZD-10">
          <mxGeometry width="50" height="50" relative="1" as="geometry">
            <mxPoint x="250" y="488" as="sourcePoint" />
            <mxPoint x="250" y="510" as="targetPoint" />
          </mxGeometry>
        </mxCell>
        <mxCell id="Ikh1pLO8s60egoNyS5ZD-13" value="MariaDB&lt;div&gt;mariadb-cat: 3306&lt;/div&gt;" style="shape=cylinder3;whiteSpace=wrap;html=1;boundedLbl=1;backgroundOutline=1;size=15;fillColor=#1ba1e2;fontColor=#ffffff;strokeColor=#006EAF;" vertex="1" parent="1">
          <mxGeometry x="1196" y="105" width="90" height="100" as="geometry" />
        </mxCell>
        <mxCell id="Ikh1pLO8s60egoNyS5ZD-19" value="" style="endArrow=classic;html=1;rounded=0;exitX=0.5;exitY=1;exitDx=0;exitDy=0;entryX=0.5;entryY=0;entryDx=0;entryDy=0;entryPerimeter=0;" edge="1" parent="1" source="Ikh1pLO8s60egoNyS5ZD-2" target="Ikh1pLO8s60egoNyS5ZD-6">
          <mxGeometry width="50" height="50" relative="1" as="geometry">
            <mxPoint x="320" y="300" as="sourcePoint" />
            <mxPoint x="370" y="250" as="targetPoint" />
          </mxGeometry>
        </mxCell>
        <mxCell id="Ikh1pLO8s60egoNyS5ZD-23" value="/api/cars-Delete" style="rounded=0;whiteSpace=wrap;html=1;" vertex="1" parent="1">
          <mxGeometry x="369" y="380" width="90" height="30" as="geometry" />
        </mxCell>
        <mxCell id="Ikh1pLO8s60egoNyS5ZD-24" value="" style="aspect=fixed;sketch=0;html=1;dashed=0;whitespace=wrap;verticalLabelPosition=bottom;verticalAlign=top;fillColor=#2875E2;strokeColor=#ffffff;points=[[0.005,0.63,0],[0.1,0.2,0],[0.9,0.2,0],[0.5,0,0],[0.995,0.63,0],[0.72,0.99,0],[0.5,1,0],[0.28,0.99,0]];shape=mxgraph.kubernetes.icon2;kubernetesLabel=1;prIcon=svc" vertex="1" parent="1">
          <mxGeometry x="389" y="430" width="50" height="48" as="geometry" />
        </mxCell>
        <mxCell id="Ikh1pLO8s60egoNyS5ZD-25" value="" style="endArrow=classic;html=1;rounded=0;exitX=0.5;exitY=1;exitDx=0;exitDy=0;entryX=0.5;entryY=0;entryDx=0;entryDy=0;entryPerimeter=0;" edge="1" parent="1" source="Ikh1pLO8s60egoNyS5ZD-23" target="Ikh1pLO8s60egoNyS5ZD-24">
          <mxGeometry width="50" height="50" relative="1" as="geometry">
            <mxPoint x="424" y="348" as="sourcePoint" />
            <mxPoint x="424" y="390" as="targetPoint" />
          </mxGeometry>
        </mxCell>
        <mxCell id="Ikh1pLO8s60egoNyS5ZD-26" value="" style="aspect=fixed;sketch=0;html=1;dashed=0;whitespace=wrap;verticalLabelPosition=bottom;verticalAlign=top;fillColor=#2875E2;strokeColor=#ffffff;points=[[0.005,0.63,0],[0.1,0.2,0],[0.9,0.2,0],[0.5,0,0],[0.995,0.63,0],[0.72,0.99,0],[0.5,1,0],[0.28,0.99,0]];shape=mxgraph.kubernetes.icon2;prIcon=pod" vertex="1" parent="1">
          <mxGeometry x="389" y="500" width="50" height="48" as="geometry" />
        </mxCell>
        <mxCell id="Ikh1pLO8s60egoNyS5ZD-27" value="CarDeleteController&lt;div&gt;deleteCar()&lt;/div&gt;" style="rounded=1;whiteSpace=wrap;html=1;" vertex="1" parent="1">
          <mxGeometry x="354" y="585" width="120" height="60" as="geometry" />
        </mxCell>
        <mxCell id="Ikh1pLO8s60egoNyS5ZD-28" value="" style="endArrow=classic;html=1;rounded=0;exitX=0.5;exitY=1;exitDx=0;exitDy=0;exitPerimeter=0;entryX=0.5;entryY=0;entryDx=0;entryDy=0;entryPerimeter=0;" edge="1" parent="1" source="Ikh1pLO8s60egoNyS5ZD-24" target="Ikh1pLO8s60egoNyS5ZD-26">
          <mxGeometry width="50" height="50" relative="1" as="geometry">
            <mxPoint x="424" y="348" as="sourcePoint" />
            <mxPoint x="424" y="390" as="targetPoint" />
          </mxGeometry>
        </mxCell>
        <mxCell id="Ikh1pLO8s60egoNyS5ZD-29" value="" style="endArrow=classic;html=1;rounded=0;exitX=0.5;exitY=1;exitDx=0;exitDy=0;exitPerimeter=0;entryX=0.5;entryY=0;entryDx=0;entryDy=0;" edge="1" parent="1" source="Ikh1pLO8s60egoNyS5ZD-26" target="Ikh1pLO8s60egoNyS5ZD-27">
          <mxGeometry width="50" height="50" relative="1" as="geometry">
            <mxPoint x="424" y="488" as="sourcePoint" />
            <mxPoint x="424" y="510" as="targetPoint" />
          </mxGeometry>
        </mxCell>
        <mxCell id="Ikh1pLO8s60egoNyS5ZD-30" value="/api/cars-GetAll" style="rounded=0;whiteSpace=wrap;html=1;" vertex="1" parent="1">
          <mxGeometry x="525" y="380" width="90" height="30" as="geometry" />
        </mxCell>
        <mxCell id="Ikh1pLO8s60egoNyS5ZD-31" value="" style="aspect=fixed;sketch=0;html=1;dashed=0;whitespace=wrap;verticalLabelPosition=bottom;verticalAlign=top;fillColor=#2875E2;strokeColor=#ffffff;points=[[0.005,0.63,0],[0.1,0.2,0],[0.9,0.2,0],[0.5,0,0],[0.995,0.63,0],[0.72,0.99,0],[0.5,1,0],[0.28,0.99,0]];shape=mxgraph.kubernetes.icon2;kubernetesLabel=1;prIcon=svc" vertex="1" parent="1">
          <mxGeometry x="545" y="430" width="50" height="48" as="geometry" />
        </mxCell>
        <mxCell id="Ikh1pLO8s60egoNyS5ZD-32" value="" style="endArrow=classic;html=1;rounded=0;exitX=0.5;exitY=1;exitDx=0;exitDy=0;entryX=0.5;entryY=0;entryDx=0;entryDy=0;entryPerimeter=0;" edge="1" parent="1" source="Ikh1pLO8s60egoNyS5ZD-30" target="Ikh1pLO8s60egoNyS5ZD-31">
          <mxGeometry width="50" height="50" relative="1" as="geometry">
            <mxPoint x="580" y="348" as="sourcePoint" />
            <mxPoint x="580" y="390" as="targetPoint" />
          </mxGeometry>
        </mxCell>
        <mxCell id="Ikh1pLO8s60egoNyS5ZD-33" value="" style="aspect=fixed;sketch=0;html=1;dashed=0;whitespace=wrap;verticalLabelPosition=bottom;verticalAlign=top;fillColor=#2875E2;strokeColor=#ffffff;points=[[0.005,0.63,0],[0.1,0.2,0],[0.9,0.2,0],[0.5,0,0],[0.995,0.63,0],[0.72,0.99,0],[0.5,1,0],[0.28,0.99,0]];shape=mxgraph.kubernetes.icon2;prIcon=pod" vertex="1" parent="1">
          <mxGeometry x="545" y="500" width="50" height="48" as="geometry" />
        </mxCell>
        <mxCell id="Ikh1pLO8s60egoNyS5ZD-34" value="CarGetAllController&lt;div&gt;getAllCars()&lt;/div&gt;" style="rounded=1;whiteSpace=wrap;html=1;" vertex="1" parent="1">
          <mxGeometry x="510" y="585" width="120" height="60" as="geometry" />
        </mxCell>
        <mxCell id="Ikh1pLO8s60egoNyS5ZD-35" value="" style="endArrow=classic;html=1;rounded=0;exitX=0.5;exitY=1;exitDx=0;exitDy=0;exitPerimeter=0;entryX=0.5;entryY=0;entryDx=0;entryDy=0;entryPerimeter=0;" edge="1" parent="1" source="Ikh1pLO8s60egoNyS5ZD-31" target="Ikh1pLO8s60egoNyS5ZD-33">
          <mxGeometry width="50" height="50" relative="1" as="geometry">
            <mxPoint x="580" y="348" as="sourcePoint" />
            <mxPoint x="580" y="390" as="targetPoint" />
          </mxGeometry>
        </mxCell>
        <mxCell id="Ikh1pLO8s60egoNyS5ZD-36" value="" style="endArrow=classic;html=1;rounded=0;exitX=0.5;exitY=1;exitDx=0;exitDy=0;exitPerimeter=0;entryX=0.5;entryY=0;entryDx=0;entryDy=0;" edge="1" parent="1" source="Ikh1pLO8s60egoNyS5ZD-33" target="Ikh1pLO8s60egoNyS5ZD-34">
          <mxGeometry width="50" height="50" relative="1" as="geometry">
            <mxPoint x="580" y="488" as="sourcePoint" />
            <mxPoint x="580" y="510" as="targetPoint" />
          </mxGeometry>
        </mxCell>
        <mxCell id="Ikh1pLO8s60egoNyS5ZD-37" value="/api/cars-GetById" style="rounded=0;whiteSpace=wrap;html=1;" vertex="1" parent="1">
          <mxGeometry x="695" y="380" width="90" height="30" as="geometry" />
        </mxCell>
        <mxCell id="Ikh1pLO8s60egoNyS5ZD-38" value="" style="aspect=fixed;sketch=0;html=1;dashed=0;whitespace=wrap;verticalLabelPosition=bottom;verticalAlign=top;fillColor=#2875E2;strokeColor=#ffffff;points=[[0.005,0.63,0],[0.1,0.2,0],[0.9,0.2,0],[0.5,0,0],[0.995,0.63,0],[0.72,0.99,0],[0.5,1,0],[0.28,0.99,0]];shape=mxgraph.kubernetes.icon2;kubernetesLabel=1;prIcon=svc" vertex="1" parent="1">
          <mxGeometry x="715" y="430" width="50" height="48" as="geometry" />
        </mxCell>
        <mxCell id="Ikh1pLO8s60egoNyS5ZD-39" value="" style="endArrow=classic;html=1;rounded=0;exitX=0.5;exitY=1;exitDx=0;exitDy=0;entryX=0.5;entryY=0;entryDx=0;entryDy=0;entryPerimeter=0;" edge="1" parent="1" source="Ikh1pLO8s60egoNyS5ZD-37" target="Ikh1pLO8s60egoNyS5ZD-38">
          <mxGeometry width="50" height="50" relative="1" as="geometry">
            <mxPoint x="750" y="348" as="sourcePoint" />
            <mxPoint x="750" y="390" as="targetPoint" />
          </mxGeometry>
        </mxCell>
        <mxCell id="Ikh1pLO8s60egoNyS5ZD-40" value="" style="aspect=fixed;sketch=0;html=1;dashed=0;whitespace=wrap;verticalLabelPosition=bottom;verticalAlign=top;fillColor=#2875E2;strokeColor=#ffffff;points=[[0.005,0.63,0],[0.1,0.2,0],[0.9,0.2,0],[0.5,0,0],[0.995,0.63,0],[0.72,0.99,0],[0.5,1,0],[0.28,0.99,0]];shape=mxgraph.kubernetes.icon2;prIcon=pod" vertex="1" parent="1">
          <mxGeometry x="715" y="500" width="50" height="48" as="geometry" />
        </mxCell>
        <mxCell id="Ikh1pLO8s60egoNyS5ZD-41" value="CarGetByIdController&lt;div&gt;getCarById&lt;/div&gt;" style="rounded=1;whiteSpace=wrap;html=1;" vertex="1" parent="1">
          <mxGeometry x="680" y="585" width="120" height="60" as="geometry" />
        </mxCell>
        <mxCell id="Ikh1pLO8s60egoNyS5ZD-42" value="" style="endArrow=classic;html=1;rounded=0;exitX=0.5;exitY=1;exitDx=0;exitDy=0;exitPerimeter=0;entryX=0.5;entryY=0;entryDx=0;entryDy=0;entryPerimeter=0;" edge="1" parent="1" source="Ikh1pLO8s60egoNyS5ZD-38" target="Ikh1pLO8s60egoNyS5ZD-40">
          <mxGeometry width="50" height="50" relative="1" as="geometry">
            <mxPoint x="750" y="348" as="sourcePoint" />
            <mxPoint x="750" y="390" as="targetPoint" />
          </mxGeometry>
        </mxCell>
        <mxCell id="Ikh1pLO8s60egoNyS5ZD-43" value="" style="endArrow=classic;html=1;rounded=0;exitX=0.5;exitY=1;exitDx=0;exitDy=0;exitPerimeter=0;entryX=0.5;entryY=0;entryDx=0;entryDy=0;" edge="1" parent="1" source="Ikh1pLO8s60egoNyS5ZD-40" target="Ikh1pLO8s60egoNyS5ZD-41">
          <mxGeometry width="50" height="50" relative="1" as="geometry">
            <mxPoint x="750" y="488" as="sourcePoint" />
            <mxPoint x="750" y="510" as="targetPoint" />
          </mxGeometry>
        </mxCell>
        <mxCell id="Ikh1pLO8s60egoNyS5ZD-51" value="/api/cars-Update" style="rounded=0;whiteSpace=wrap;html=1;" vertex="1" parent="1">
          <mxGeometry x="842" y="380" width="90" height="30" as="geometry" />
        </mxCell>
        <mxCell id="Ikh1pLO8s60egoNyS5ZD-52" value="" style="aspect=fixed;sketch=0;html=1;dashed=0;whitespace=wrap;verticalLabelPosition=bottom;verticalAlign=top;fillColor=#2875E2;strokeColor=#ffffff;points=[[0.005,0.63,0],[0.1,0.2,0],[0.9,0.2,0],[0.5,0,0],[0.995,0.63,0],[0.72,0.99,0],[0.5,1,0],[0.28,0.99,0]];shape=mxgraph.kubernetes.icon2;kubernetesLabel=1;prIcon=svc" vertex="1" parent="1">
          <mxGeometry x="862" y="430" width="50" height="48" as="geometry" />
        </mxCell>
        <mxCell id="Ikh1pLO8s60egoNyS5ZD-53" value="" style="endArrow=classic;html=1;rounded=0;exitX=0.5;exitY=1;exitDx=0;exitDy=0;entryX=0.5;entryY=0;entryDx=0;entryDy=0;entryPerimeter=0;" edge="1" parent="1" source="Ikh1pLO8s60egoNyS5ZD-51" target="Ikh1pLO8s60egoNyS5ZD-52">
          <mxGeometry width="50" height="50" relative="1" as="geometry">
            <mxPoint x="897" y="348" as="sourcePoint" />
            <mxPoint x="897" y="390" as="targetPoint" />
          </mxGeometry>
        </mxCell>
        <mxCell id="Ikh1pLO8s60egoNyS5ZD-54" value="" style="aspect=fixed;sketch=0;html=1;dashed=0;whitespace=wrap;verticalLabelPosition=bottom;verticalAlign=top;fillColor=#2875E2;strokeColor=#ffffff;points=[[0.005,0.63,0],[0.1,0.2,0],[0.9,0.2,0],[0.5,0,0],[0.995,0.63,0],[0.72,0.99,0],[0.5,1,0],[0.28,0.99,0]];shape=mxgraph.kubernetes.icon2;prIcon=pod" vertex="1" parent="1">
          <mxGeometry x="862" y="500" width="50" height="48" as="geometry" />
        </mxCell>
        <mxCell id="Ikh1pLO8s60egoNyS5ZD-55" value="CarUpdateController&lt;div&gt;updateCar()&lt;/div&gt;" style="rounded=1;whiteSpace=wrap;html=1;" vertex="1" parent="1">
          <mxGeometry x="827" y="585" width="120" height="60" as="geometry" />
        </mxCell>
        <mxCell id="Ikh1pLO8s60egoNyS5ZD-56" value="" style="endArrow=classic;html=1;rounded=0;exitX=0.5;exitY=1;exitDx=0;exitDy=0;exitPerimeter=0;entryX=0.5;entryY=0;entryDx=0;entryDy=0;entryPerimeter=0;" edge="1" parent="1" source="Ikh1pLO8s60egoNyS5ZD-52" target="Ikh1pLO8s60egoNyS5ZD-54">
          <mxGeometry width="50" height="50" relative="1" as="geometry">
            <mxPoint x="897" y="348" as="sourcePoint" />
            <mxPoint x="897" y="390" as="targetPoint" />
          </mxGeometry>
        </mxCell>
        <mxCell id="Ikh1pLO8s60egoNyS5ZD-57" value="" style="endArrow=classic;html=1;rounded=0;exitX=0.5;exitY=1;exitDx=0;exitDy=0;exitPerimeter=0;entryX=0.5;entryY=0;entryDx=0;entryDy=0;" edge="1" parent="1" source="Ikh1pLO8s60egoNyS5ZD-54" target="Ikh1pLO8s60egoNyS5ZD-55">
          <mxGeometry width="50" height="50" relative="1" as="geometry">
            <mxPoint x="897" y="488" as="sourcePoint" />
            <mxPoint x="897" y="510" as="targetPoint" />
          </mxGeometry>
        </mxCell>
        <mxCell id="Ikh1pLO8s60egoNyS5ZD-58" value="" style="endArrow=classic;html=1;rounded=0;entryX=0.5;entryY=0;entryDx=0;entryDy=0;exitX=0.005;exitY=0.63;exitDx=0;exitDy=0;exitPerimeter=0;" edge="1" parent="1" source="Ikh1pLO8s60egoNyS5ZD-6" target="Ikh1pLO8s60egoNyS5ZD-4">
          <mxGeometry width="50" height="50" relative="1" as="geometry">
            <mxPoint x="500" y="330" as="sourcePoint" />
            <mxPoint x="550" y="280" as="targetPoint" />
          </mxGeometry>
        </mxCell>
        <mxCell id="Ikh1pLO8s60egoNyS5ZD-59" value="" style="endArrow=classic;html=1;rounded=0;entryX=0.5;entryY=0;entryDx=0;entryDy=0;exitX=0.28;exitY=0.99;exitDx=0;exitDy=0;exitPerimeter=0;" edge="1" parent="1" source="Ikh1pLO8s60egoNyS5ZD-6" target="Ikh1pLO8s60egoNyS5ZD-23">
          <mxGeometry width="50" height="50" relative="1" as="geometry">
            <mxPoint x="555" y="270" as="sourcePoint" />
            <mxPoint x="250" y="390" as="targetPoint" />
          </mxGeometry>
        </mxCell>
        <mxCell id="Ikh1pLO8s60egoNyS5ZD-60" value="" style="endArrow=classic;html=1;rounded=0;entryX=0.5;entryY=0;entryDx=0;entryDy=0;exitX=0.5;exitY=1;exitDx=0;exitDy=0;exitPerimeter=0;" edge="1" parent="1" source="Ikh1pLO8s60egoNyS5ZD-6" target="Ikh1pLO8s60egoNyS5ZD-30">
          <mxGeometry width="50" height="50" relative="1" as="geometry">
            <mxPoint x="569" y="288" as="sourcePoint" />
            <mxPoint x="424" y="390" as="targetPoint" />
          </mxGeometry>
        </mxCell>
        <mxCell id="Ikh1pLO8s60egoNyS5ZD-61" value="" style="endArrow=classic;html=1;rounded=0;entryX=0.5;entryY=0;entryDx=0;entryDy=0;exitX=0.72;exitY=0.99;exitDx=0;exitDy=0;exitPerimeter=0;" edge="1" parent="1" source="Ikh1pLO8s60egoNyS5ZD-6" target="Ikh1pLO8s60egoNyS5ZD-37">
          <mxGeometry width="50" height="50" relative="1" as="geometry">
            <mxPoint x="580" y="288" as="sourcePoint" />
            <mxPoint x="580" y="390" as="targetPoint" />
          </mxGeometry>
        </mxCell>
        <mxCell id="Ikh1pLO8s60egoNyS5ZD-62" value="" style="endArrow=classic;html=1;rounded=0;entryX=0.5;entryY=0;entryDx=0;entryDy=0;exitX=0.995;exitY=0.63;exitDx=0;exitDy=0;exitPerimeter=0;" edge="1" parent="1" source="Ikh1pLO8s60egoNyS5ZD-6" target="Ikh1pLO8s60egoNyS5ZD-51">
          <mxGeometry width="50" height="50" relative="1" as="geometry">
            <mxPoint x="591" y="288" as="sourcePoint" />
            <mxPoint x="750" y="390" as="targetPoint" />
          </mxGeometry>
        </mxCell>
        <mxCell id="Ikh1pLO8s60egoNyS5ZD-65" value="" style="aspect=fixed;sketch=0;html=1;dashed=0;whitespace=wrap;verticalLabelPosition=bottom;verticalAlign=top;fillColor=#2875E2;strokeColor=#ffffff;points=[[0.005,0.63,0],[0.1,0.2,0],[0.9,0.2,0],[0.5,0,0],[0.995,0.63,0],[0.72,0.99,0],[0.5,1,0],[0.28,0.99,0]];shape=mxgraph.kubernetes.icon2;kubernetesLabel=1;prIcon=svc" vertex="1" parent="1">
          <mxGeometry x="862" y="122" width="50" height="48" as="geometry" />
        </mxCell>
        <mxCell id="Ikh1pLO8s60egoNyS5ZD-66" value="" style="endArrow=classic;html=1;rounded=0;exitX=1;exitY=0.5;exitDx=0;exitDy=0;entryX=0.005;entryY=0.63;entryDx=0;entryDy=0;entryPerimeter=0;" edge="1" parent="1" source="Ikh1pLO8s60egoNyS5ZD-2" target="Ikh1pLO8s60egoNyS5ZD-65">
          <mxGeometry width="50" height="50" relative="1" as="geometry">
            <mxPoint x="670" y="180" as="sourcePoint" />
            <mxPoint x="720" y="130" as="targetPoint" />
          </mxGeometry>
        </mxCell>
        <mxCell id="Ikh1pLO8s60egoNyS5ZD-67" value="" style="aspect=fixed;sketch=0;html=1;dashed=0;whitespace=wrap;verticalLabelPosition=bottom;verticalAlign=top;fillColor=#2875E2;strokeColor=#ffffff;points=[[0.005,0.63,0],[0.1,0.2,0],[0.9,0.2,0],[0.5,0,0],[0.995,0.63,0],[0.72,0.99,0],[0.5,1,0],[0.28,0.99,0]];shape=mxgraph.kubernetes.icon2;prIcon=pod" vertex="1" parent="1">
          <mxGeometry x="1010" y="122" width="50" height="48" as="geometry" />
        </mxCell>
        <mxCell id="Ikh1pLO8s60egoNyS5ZD-68" value="" style="endArrow=classic;html=1;rounded=0;exitX=0.995;exitY=0.63;exitDx=0;exitDy=0;entryX=0.005;entryY=0.63;entryDx=0;entryDy=0;entryPerimeter=0;exitPerimeter=0;" edge="1" parent="1" source="Ikh1pLO8s60egoNyS5ZD-65" target="Ikh1pLO8s60egoNyS5ZD-67">
          <mxGeometry width="50" height="50" relative="1" as="geometry">
            <mxPoint x="610" y="165" as="sourcePoint" />
            <mxPoint x="872" y="162" as="targetPoint" />
          </mxGeometry>
        </mxCell>
        <mxCell id="Ikh1pLO8s60egoNyS5ZD-69" value="" style="endArrow=classic;html=1;rounded=0;exitX=0.995;exitY=0.63;exitDx=0;exitDy=0;entryX=0;entryY=0.5;entryDx=0;entryDy=0;entryPerimeter=0;exitPerimeter=0;" edge="1" parent="1" source="Ikh1pLO8s60egoNyS5ZD-67" target="Ikh1pLO8s60egoNyS5ZD-13">
          <mxGeometry width="50" height="50" relative="1" as="geometry">
            <mxPoint x="922" y="162" as="sourcePoint" />
            <mxPoint x="1020" y="162" as="targetPoint" />
          </mxGeometry>
        </mxCell>
        <mxCell id="Ikh1pLO8s60egoNyS5ZD-71" value="Persistent Storage" style="rounded=1;whiteSpace=wrap;html=1;" vertex="1" parent="1">
          <mxGeometry x="319" y="137.5" width="120" height="35" as="geometry" />
        </mxCell>
        <mxCell id="Ikh1pLO8s60egoNyS5ZD-73" value="" style="endArrow=classic;html=1;rounded=0;exitX=0;exitY=0.5;exitDx=0;exitDy=0;entryX=1;entryY=0.5;entryDx=0;entryDy=0;" edge="1" parent="1" source="Ikh1pLO8s60egoNyS5ZD-2" target="Ikh1pLO8s60egoNyS5ZD-71">
          <mxGeometry width="50" height="50" relative="1" as="geometry">
            <mxPoint x="470" y="220" as="sourcePoint" />
            <mxPoint x="520" y="170" as="targetPoint" />
          </mxGeometry>
        </mxCell>
        <mxCell id="Ikh1pLO8s60egoNyS5ZD-74" value="" style="aspect=fixed;sketch=0;html=1;dashed=0;whitespace=wrap;verticalLabelPosition=bottom;verticalAlign=top;fillColor=#2875E2;strokeColor=#ffffff;points=[[0.005,0.63,0],[0.1,0.2,0],[0.9,0.2,0],[0.5,0,0],[0.995,0.63,0],[0.72,0.99,0],[0.5,1,0],[0.28,0.99,0]];shape=mxgraph.kubernetes.icon2;kubernetesLabel=1;prIcon=pv" vertex="1" parent="1">
          <mxGeometry x="180" y="182" width="50" height="48" as="geometry" />
        </mxCell>
        <mxCell id="Ikh1pLO8s60egoNyS5ZD-75" value="" style="aspect=fixed;sketch=0;html=1;dashed=0;whitespace=wrap;verticalLabelPosition=bottom;verticalAlign=top;fillColor=#2875E2;strokeColor=#ffffff;points=[[0.005,0.63,0],[0.1,0.2,0],[0.9,0.2,0],[0.5,0,0],[0.995,0.63,0],[0.72,0.99,0],[0.5,1,0],[0.28,0.99,0]];shape=mxgraph.kubernetes.icon2;kubernetesLabel=1;prIcon=pvc" vertex="1" parent="1">
          <mxGeometry x="180" y="89.5" width="50" height="48" as="geometry" />
        </mxCell>
        <mxCell id="Ikh1pLO8s60egoNyS5ZD-76" value="" style="aspect=fixed;sketch=0;html=1;dashed=0;whitespace=wrap;verticalLabelPosition=bottom;verticalAlign=top;fillColor=#2875E2;strokeColor=#ffffff;points=[[0.005,0.63,0],[0.1,0.2,0],[0.9,0.2,0],[0.5,0,0],[0.995,0.63,0],[0.72,0.99,0],[0.5,1,0],[0.28,0.99,0]];shape=mxgraph.kubernetes.icon2;kubernetesLabel=1;prIcon=pvc" vertex="1" parent="1">
          <mxGeometry x="1380" y="124.5" width="50" height="48" as="geometry" />
        </mxCell>
        <mxCell id="Ikh1pLO8s60egoNyS5ZD-77" value="" style="endArrow=classic;html=1;rounded=0;exitX=1;exitY=0.5;exitDx=0;exitDy=0;entryX=0.005;entryY=0.63;entryDx=0;entryDy=0;entryPerimeter=0;exitPerimeter=0;" edge="1" parent="1" source="Ikh1pLO8s60egoNyS5ZD-13" target="Ikh1pLO8s60egoNyS5ZD-76">
          <mxGeometry width="50" height="50" relative="1" as="geometry">
            <mxPoint x="1070" y="162" as="sourcePoint" />
            <mxPoint x="1206" y="165" as="targetPoint" />
          </mxGeometry>
        </mxCell>
        <mxCell id="Ikh1pLO8s60egoNyS5ZD-78" value="" style="endArrow=classic;html=1;rounded=0;exitX=0;exitY=0.5;exitDx=0;exitDy=0;entryX=0.995;entryY=0.63;entryDx=0;entryDy=0;entryPerimeter=0;" edge="1" parent="1" source="Ikh1pLO8s60egoNyS5ZD-71" target="Ikh1pLO8s60egoNyS5ZD-74">
          <mxGeometry width="50" height="50" relative="1" as="geometry">
            <mxPoint x="290" y="240" as="sourcePoint" />
            <mxPoint x="340" y="190" as="targetPoint" />
          </mxGeometry>
        </mxCell>
        <mxCell id="Ikh1pLO8s60egoNyS5ZD-79" value="" style="aspect=fixed;sketch=0;html=1;dashed=0;whitespace=wrap;verticalLabelPosition=bottom;verticalAlign=top;fillColor=#2875E2;strokeColor=#ffffff;points=[[0.005,0.63,0],[0.1,0.2,0],[0.9,0.2,0],[0.5,0,0],[0.995,0.63,0],[0.72,0.99,0],[0.5,1,0],[0.28,0.99,0]];shape=mxgraph.kubernetes.icon2;kubernetesLabel=1;prIcon=pv" vertex="1" parent="1">
          <mxGeometry x="1500" y="124.5" width="50" height="48" as="geometry" />
        </mxCell>
        <mxCell id="Ikh1pLO8s60egoNyS5ZD-81" value="" style="endArrow=classic;html=1;rounded=0;exitX=0.995;exitY=0.63;exitDx=0;exitDy=0;entryX=0.005;entryY=0.63;entryDx=0;entryDy=0;entryPerimeter=0;exitPerimeter=0;" edge="1" parent="1" source="Ikh1pLO8s60egoNyS5ZD-76" target="Ikh1pLO8s60egoNyS5ZD-79">
          <mxGeometry width="50" height="50" relative="1" as="geometry">
            <mxPoint x="1296" y="165" as="sourcePoint" />
            <mxPoint x="1390" y="165" as="targetPoint" />
          </mxGeometry>
        </mxCell>
        <mxCell id="Ikh1pLO8s60egoNyS5ZD-82" value="" style="endArrow=classic;html=1;rounded=0;exitX=0;exitY=0.5;exitDx=0;exitDy=0;entryX=0.995;entryY=0.63;entryDx=0;entryDy=0;entryPerimeter=0;" edge="1" parent="1" source="Ikh1pLO8s60egoNyS5ZD-71" target="Ikh1pLO8s60egoNyS5ZD-75">
          <mxGeometry width="50" height="50" relative="1" as="geometry">
            <mxPoint x="329" y="165" as="sourcePoint" />
            <mxPoint x="240" y="222" as="targetPoint" />
          </mxGeometry>
        </mxCell>
      </root>
    </mxGraphModel>
  </diagram>
</mxfile>
